<svg xmlns="http://www.w3.org/2000/svg" xmlns:xlink="http://www.w3.org/1999/xlink" version="1.1" style="" xml:space="preserve" width="513.64" height="513.64"><rect id="backgroundrect" width="100%" height="100%" x="0" y="0" fill="none" stroke="none"/>
















<g class="currentLayer" style=""><title>Layer 1</title><g id="svg_1" class="selected" fill="#1aeb1a" fill-opacity="1">
	<g id="svg_2" fill="#1aeb1a" fill-opacity="1">
		<path d="M498.66,376.96 l-71.68,-71.68 c-25.6,-25.6 -69.12,-15.359 -79.36,17.92 c-7.68,23.041 -33.28,35.841 -56.32,30.72 c-51.2,-12.8 -120.32,-79.36 -133.12,-133.12 c-7.68,-23.041 7.68,-48.641 30.72,-56.32 c33.28,-10.24 43.52,-53.76 17.92,-79.36 l-71.68,-71.68 c-20.48,-17.92 -51.2,-17.92 -69.12,0 l-48.64,48.64 c-48.64,51.2 5.12,186.88 125.44,307.2 c120.32,120.32 256,176.641 307.2,125.44 l48.64,-48.64 C516.581,425.6 516.581,394.88 498.66,376.96 z" id="svg_3" fill="#1aeb1a" fill-opacity="1"/>
	</g>
</g><g id="svg_4">
</g><g id="svg_5">
</g><g id="svg_6">
</g><g id="svg_7">
</g><g id="svg_8">
</g><g id="svg_9">
</g><g id="svg_10">
</g><g id="svg_11">
</g><g id="svg_12">
</g><g id="svg_13">
</g><g id="svg_14">
</g><g id="svg_15">
</g><g id="svg_16">
</g><g id="svg_17">
</g><g id="svg_18">
</g></g></svg>